<svg id="Layer_1" data-name="Layer 1" xmlns="http://www.w3.org/2000/svg" xmlns:xlink="http://www.w3.org/1999/xlink" viewBox="0 0 187.12 31.5"><defs><style>.cls-1{fill:none;}.cls-2{clip-path:url(#clip-path);}.cls-3{fill:url(#linear-gradient);}.cls-4{fill:#fff;}.cls-5{clip-path:url(#clip-path-2);}.cls-6{fill:url(#linear-gradient-2);}.cls-7{clip-path:url(#clip-path-3);}.cls-8{fill:url(#linear-gradient-3);}.cls-9{clip-path:url(#clip-path-4);}.cls-10{fill:url(#linear-gradient-4);}.cls-11{clip-path:url(#clip-path-5);}.cls-12{fill:url(#linear-gradient-5);}.cls-13{clip-path:url(#clip-path-6);}.cls-14{clip-path:url(#clip-path-7);}</style><clipPath id="clip-path" transform="translate(-590.14 -368.71)"><path id="SVGID" class="cls-1" d="M621,384.29a9.63,9.63,0,1,1,9.63,9.63,9.64,9.64,0,0,1-9.63-9.63m0-12v-3.38h-5.8v15.43h0a15.44,15.44,0,1,0,5.8-12"/></clipPath><linearGradient id="linear-gradient" x1="264.19" y1="681.07" x2="265.19" y2="681.07" gradientTransform="matrix(40.08, 0, 0, -40.08, -10572.85, 27315.22)" gradientUnits="userSpaceOnUse"><stop offset="0" stop-color="#e6c384"/><stop offset="1" stop-color="#9e7958"/></linearGradient><clipPath id="clip-path-2" transform="translate(-590.14 -368.71)"><path id="SVGID-2" data-name="SVGID" class="cls-1" d="M621,372.24v-3.38h-5.8v15.43h0a15.43,15.43,0,0,0,13.38,15.29v-5.88a9.63,9.63,0,1,1,11.68-9.41h5.8a15.43,15.43,0,0,0-25.07-12"/></clipPath><linearGradient id="linear-gradient-2" x1="264.19" y1="681.07" x2="265.19" y2="681.07" gradientTransform="matrix(40.08, 0, 0, -40.08, -10572.85, 27315.15)" xlink:href="#linear-gradient"/><clipPath id="clip-path-3" transform="translate(-590.14 -368.71)"><path id="SVGID-3" data-name="SVGID" class="cls-1" d="M624,398.38a15,15,0,0,0,7.72,1.27s1.75-6-.74-5.76a10,10,0,0,1-4.87-.93s-6.25,3.58-2.11,5.42"/></clipPath><linearGradient id="linear-gradient-3" x1="264.18" y1="681.07" x2="265.18" y2="681.07" gradientTransform="matrix(40.08, 0, 0, -40.08, -10572.85, 27327.28)" xlink:href="#linear-gradient"/><clipPath id="clip-path-4" transform="translate(-590.14 -368.71)"><path id="SVGID-4" data-name="SVGID" class="cls-1" d="M640.26,383.83l0,.86,5.78,0s0-1.1,0-1.53c0-.07-.18-.11-.45-.11a49.39,49.39,0,0,0-5.32.74"/></clipPath><linearGradient id="linear-gradient-4" x1="264.19" y1="681.07" x2="265.19" y2="681.07" gradientTransform="matrix(40.08, 0, 0, -40.08, -10572.85, 27314.84)" xlink:href="#linear-gradient"/><clipPath id="clip-path-5" transform="translate(-590.14 -368.71)"><path id="SVGID-5" data-name="SVGID" class="cls-1" d="M673.65,373.6a4.72,4.72,0,1,0,4.72-4.72,4.72,4.72,0,0,0-4.72,4.72"/></clipPath><linearGradient id="linear-gradient-5" x1="264.98" y1="682.2" x2="265.98" y2="682.2" gradientTransform="matrix(0, 37.91, 37.91, 0, -25776.16, -10052.46)" xlink:href="#linear-gradient"/><clipPath id="clip-path-6" transform="translate(-590.14 -368.71)"><path id="SVGID-6" data-name="SVGID" class="cls-1" d="M673.65,384.3a4.7,4.7,0,0,0,1.38,3.34l6.39,3.73h0c-1.14-1.3-1.06-2.41.26-3.74a4.72,4.72,0,1,0-8.06-3.34"/></clipPath><clipPath id="clip-path-7" transform="translate(-590.14 -368.71)"><path id="SVGID-7" data-name="SVGID" class="cls-1" d="M675,391.68a4.72,4.72,0,1,0,6.67,0c-.1-.1-.18-.2-.26-.3h0L675,387.64c1.43,1.43,1.43,2.61,0,4"/></clipPath></defs><title>Logo new white</title><g class="cls-2"><rect class="cls-3" x="25.06" y="0.14" width="30.87" height="30.86"/></g><path class="cls-4" d="M657,390.77a9.63,9.63,0,1,1,0-13h6.89a15.43,15.43,0,1,0,0,13Z" transform="translate(-590.14 -368.71)"/><path class="cls-4" d="M621,384.29a15.44,15.44,0,1,0-5.8,12v3.38H621V384.29Zm-15.43,9.63a9.63,9.63,0,1,1,9.63-9.63,9.64,9.64,0,0,1-9.63,9.63" transform="translate(-590.14 -368.71)"/><g class="cls-5"><rect class="cls-6" x="25.06" y="0.14" width="30.87" height="30.72"/></g><g class="cls-7"><rect class="cls-8" x="29.71" y="24.25" width="13.61" height="7.25"/></g><g class="cls-9"><rect class="cls-10" x="50.12" y="14.37" width="5.81" height="1.64"/></g><g class="cls-11"><rect class="cls-12" x="83.51" y="0.16" width="9.44" height="9.44"/></g><g class="cls-13"><rect class="cls-12" x="83.51" y="10.87" width="9.44" height="11.79"/></g><g class="cls-14"><rect class="cls-12" x="83.51" y="18.93" width="9.44" height="12.09"/></g><path class="cls-4" d="M703.92,380.75h-11v-.16a2.71,2.71,0,0,0,1.52-.63,4,4,0,0,0,.31-1.78c0-.61,0-2.18,0-3.41v-3.2a4,4,0,0,0-.25-1.9,2.42,2.42,0,0,0-1.5-.63v-.17h6.05V369c-.6.08-1.77.26-1.8,1.45,0,1.53,0,2.42,0,4.06s0,2.29,0,3.79a4.25,4.25,0,0,0,.21,1.71,3.28,3.28,0,0,0,1.93.45,8.06,8.06,0,0,0,2-.25c1.75-.48,2.36-1.83,3-3.12l.17,0Z" transform="translate(-590.14 -368.71)"/><path class="cls-4" d="M712.3,380.87A6.11,6.11,0,0,1,706,374.8c0-3.79,3-6.09,6.53-6.09a5.91,5.91,0,0,1,6.17,6,6.22,6.22,0,0,1-6.38,6.14m0-11.88c-2.54,0-3.61,3-3.61,5.86s1.19,5.74,3.66,5.74,3.6-3.08,3.6-5.84-1.17-5.76-3.65-5.76" transform="translate(-590.14 -368.71)"/><path class="cls-4" d="M731.54,370.06a10,10,0,0,0-.22,2.34c0,.94-.08,2.28-.08,3.74,0,1.25,0,3.09,0,4.37,0,.2-.08.36-.31.36a.5.5,0,0,1-.4-.21c-3.68-4.3-5.79-6.73-8.69-10.14v6.7a7.54,7.54,0,0,0,.25,2.52c.25.49.81.73,1.7.84v.17h-4.19v-.17a2,2,0,0,0,1.49-.73,6.1,6.1,0,0,0,.39-2.64c0-.94.07-2.28.07-3.74,0-1.25,0-1.55,0-2.82a1.86,1.86,0,0,0-1.82-1.62v-.17h3.89l7.34,8.53v-5a8.38,8.38,0,0,0-.16-2.21c-.21-.61-.81-1-1.86-1.15v-.17h4.22V369a1.82,1.82,0,0,0-1.62,1" transform="translate(-590.14 -368.71)"/><path class="cls-4" d="M741.31,380.75H734.9v-.17a2.5,2.5,0,0,0,1.45-.61,4.32,4.32,0,0,0,.26-1.8c0-.61,0-2.08,0-3.42v-3.22a4.11,4.11,0,0,0-.25-1.93A2.07,2.07,0,0,0,735,369v-.17l5.56,0a10.53,10.53,0,0,1,4.29.56,5.36,5.36,0,0,1,3.35,5.23c0,5-3.81,6.1-6.85,6.1m.69-11.48a5.87,5.87,0,0,0-1.42-.15,7.3,7.3,0,0,0-1.39.13c-.1,1.07-.1,3-.1,5.61v3.33a4.09,4.09,0,0,0,.31,1.8,2,2,0,0,0,1.55.51,4.84,4.84,0,0,0,1.45-.2c2-.68,3-2.75,3-5.62,0-2.54-1.47-5-3.43-5.41" transform="translate(-590.14 -368.71)"/><path class="cls-4" d="M756.65,380.87a6.11,6.11,0,0,1-6.32-6.07c0-3.79,3-6.09,6.53-6.09a5.91,5.91,0,0,1,6.17,6,6.22,6.22,0,0,1-6.38,6.14m0-11.88c-2.54,0-3.61,3-3.61,5.86s1.19,5.74,3.66,5.74,3.6-3.08,3.6-5.84-1.17-5.76-3.65-5.76" transform="translate(-590.14 -368.71)"/><path class="cls-4" d="M775.65,370.06a10.05,10.05,0,0,0-.21,2.34c0,.94-.08,2.28-.08,3.74,0,1.25,0,3.09,0,4.37,0,.2-.08.36-.31.36a.5.5,0,0,1-.39-.21c-3.68-4.3-5.79-6.73-8.69-10.14v6.7a7.51,7.51,0,0,0,.25,2.52c.25.49.81.73,1.7.84v.17h-4.19v-.17a2,2,0,0,0,1.49-.73,6.1,6.1,0,0,0,.39-2.64c0-.94.07-2.28.07-3.74,0-1.25,0-1.55,0-2.82a1.86,1.86,0,0,0-1.81-1.62v-.17h3.89l7.34,8.53v-5a8.33,8.33,0,0,0-.16-2.21c-.21-.61-.81-1-1.86-1.15v-.17h4.22V369a1.82,1.82,0,0,0-1.62,1" transform="translate(-590.14 -368.71)"/><path class="cls-4" d="M704.58,394.69a3.1,3.1,0,0,0-.17,1.35v2.38a10.19,10.19,0,0,1-4.75,1.43c-4.29,0-6.75-2.31-6.75-6.07a6.17,6.17,0,0,1,1.9-4.44,6.65,6.65,0,0,1,4.83-1.72,7.33,7.33,0,0,1,4.17,1.17s.25-.36.54-.74h.17v3.83h-.2a6.22,6.22,0,0,0-1.4-2.64,4.56,4.56,0,0,0-3.27-1.34c-2.54,0-4,2.79-4,5.9,0,3.3,1.34,5.77,3.92,5.77a2.39,2.39,0,0,0,2.1-1.19,4.9,4.9,0,0,0,.26-1.85,2.94,2.94,0,0,0-.4-1.83,2.23,2.23,0,0,0-1.4-.53V394h5.59v.16a1.63,1.63,0,0,0-1.14.49" transform="translate(-590.14 -368.71)"/><path class="cls-4" d="M716.44,399.73a5.64,5.64,0,0,1-1-1.25,25.81,25.81,0,0,0-2.21-3.12,3.3,3.3,0,0,0-1.55-1.19l-.2,0c0,1.42,0,2.48,0,3.2a3.16,3.16,0,0,0,.21,1.53,2.07,2.07,0,0,0,1.63.69v.17h-6.07v-.17a2.43,2.43,0,0,0,1.45-.59,4,4,0,0,0,.26-1.81c0-.61,0-2.08,0-3.41v-3.22a4,4,0,0,0-.28-2,2.15,2.15,0,0,0-1.37-.51v-.17l5.18,0a7.92,7.92,0,0,1,3.56.51,2.8,2.8,0,0,1,1.67,2.64c0,1.62-1.25,2.61-2.76,3.07v0a4.16,4.16,0,0,1,1.09,1.12c.58.83,1.29,1.88,1.81,2.62a3.43,3.43,0,0,0,2.54,1.73v.17Zm-2.57-11.28a3,3,0,0,0-1.47-.35,5.2,5.2,0,0,0-.76,0,5.39,5.39,0,0,0-.08,1.25c0,1.53,0,4.17,0,4.52a5.15,5.15,0,0,0,2-.3,2.64,2.64,0,0,0,1.63-2.71,2.67,2.67,0,0,0-1.34-2.47" transform="translate(-590.14 -368.71)"/><path class="cls-4" d="M726.73,399.85a6.11,6.11,0,0,1-6.32-6.07c0-3.79,3-6.09,6.53-6.09a5.91,5.91,0,0,1,6.17,6,6.22,6.22,0,0,1-6.38,6.14m0-11.88c-2.54,0-3.61,3-3.61,5.86s1.19,5.74,3.66,5.74,3.6-3.08,3.6-5.84-1.17-5.76-3.65-5.76" transform="translate(-590.14 -368.71)"/><path class="cls-4" d="M745.73,389a10.38,10.38,0,0,0-.23,2.49c0,.94-.07,2-.1,3.48,0,1.24-.08,4.92-5,4.92s-4.93-3.61-4.93-4.44c0-.61,0-1.67,0-2.77v-2.2a4.1,4.1,0,0,0-.25-1.93,2.1,2.1,0,0,0-1.4-.58v-.17h5.72V388c-.63.08-1.53.3-1.57,1.32s0,1.65,0,2.84c0,.76,0,2.26,0,3.07,0,2.34,1.14,3.94,3.33,3.94,3.63,0,3.71-2.84,3.74-5.1,0-1.19,0-1.62,0-2.56a9.39,9.39,0,0,0-.18-2.36c-.21-.61-.77-1-1.83-1.15v-.17h4.22V388a1.76,1.76,0,0,0-1.58,1" transform="translate(-590.14 -368.71)"/><path class="cls-4" d="M757.1,394.39a12.93,12.93,0,0,1-3.89.41c0,1.42,0,1.83,0,2.56a3.16,3.16,0,0,0,.21,1.53,2.07,2.07,0,0,0,1.63.68v.16H749v-.16a2.26,2.26,0,0,0,1.45-.59,4,4,0,0,0,.27-1.81c0-.61,0-2.08,0-3.41v-3.22a4,4,0,0,0-.28-2,2.65,2.65,0,0,0-1.53-.51v-.16l5.18,0a7.57,7.57,0,0,1,3.66.63,3.13,3.13,0,0,1,1.73,2.84,3.31,3.31,0,0,1-2.41,3.1m-1.55-6a3,3,0,0,0-1.48-.31,3.78,3.78,0,0,0-.71.07,5.6,5.6,0,0,0-.13,1.25c0,1.53,0,4.82,0,5.15a5.37,5.37,0,0,0,2-.26,3.1,3.1,0,0,0,1.75-3.08,3,3,0,0,0-1.4-2.81" transform="translate(-590.14 -368.71)"/></svg>